<svg xmlns="http://www.w3.org/2000/svg" viewBox="0 0 264.58333 264.58334">
  <g fill="#ffffff">
    <path d="M132.29166 0A132.29167 132.29167 0 0 0 53.3926 26.10332l78.89906 87.62617 78.89906-87.62617A132.29167 132.29167 0 0 0 132.29166 0zm106.88288 54.3357-87.03913 96.66697v112.08411a132.29167 132.29167 0 0 0 112.44792-130.79511 132.29167 132.29167 0 0 0-25.40879-77.95597zm-213.76576.00052A132.29167 132.29167 0 0 0 0 132.29167a132.29167 132.29167 0 0 0 112.44791 130.7946v-112.0836z"/>
    <path d="M132.29167.00001A132.29167 132.29167 0 0 0 0 132.29167a132.29167 132.29167 0 0 0 132.29167 132.29167 132.29167 132.29167 0 0 0 132.29166-132.29167A132.29167 132.29167 0 0 0 132.29167.00001zm-.12402 13.22917a119.0625 119.0625 0 0 1 .12402 0 119.0625 119.0625 0 0 1 119.06249 119.06249 119.0625 119.0625 0 0 1-119.06249 119.0625 119.0625 119.0625 0 0 1-119.06251-119.0625A119.0625 119.0625 0 0 1 132.16765 13.22918z"/>
  </g>
</svg>