<svg xmlns="http://www.w3.org/2000/svg" width="1000" height="1000">
  <path fill="#2f2e41" d="M132.29167.00121069a132.29167 132.29167 0 0 0-.49763.000517 132.29167 132.29167 0 0 0-9.44285.373104 132.29167 132.29167 0 0 0-.99219.07855 132.29167 132.29167 0 0 0-2.47684.228927 132.29167 132.29167 0 0 0-1.43454.153995 132.29167 132.29167 0 0 0-4.48914.58497801 132.29167 132.29167 0 0 0-.9834.149344 132.29167 132.29167 0 0 0-1.96421.320394 132.29167 132.29167 0 0 0-.98031.171049 132.29167 132.29167 0 0 0-3.90673.75861 132.29167 132.29167 0 0 0-1.45884.31471 132.29167 132.29167 0 0 0-2.51767.5844603 132.29167 132.29167 0 0 0-.87177.2139403 132.29167 132.29167 0 0 0-.964805.2444294 132.29167 132.29167 0 0 0-.962739.2516643 132.29167 132.29167 0 0 0-.960676.258899 132.29167 132.29167 0 0 0-.958585.2661335 132.29167 132.29167 0 0 0-.956522.2733683 132.29167 132.29167 0 0 0-.478022.1390097 132.29167 132.29167 0 0 0-.953427.2842205 132.29167 132.29167 0 0 0-2.374026.7415567 132.29167 132.29167 0 0 0-.946177.3090251 132.29167 132.29167 0 0 0-6.08748 2.181779 132.29167 132.29167 0 0 0-.927074.3617349 132.29167 132.29167 0 0 0-.923978.3689699 132.29167 132.29167 0 0 0-.460957.1870686 132.29167 132.29167 0 0 0-.91985.3793048 132.29167 132.29167 0 0 0-.458893.192236 132.29167 132.29167 0 0 0-.915168.389641 132.29167 132.29167 0 0 0-.456829.197404 132.29167 132.29167 0 0 0-.911066.399975 132.29167 132.29167 0 0 0-.454237.202572 132.29167 132.29167 0 0 0-.906912.410311 132.29167 132.29167 0 0 0-3.147616 1.489315 132.29167 132.29167 0 0 0-1.780752.887801 132.29167 132.29167 0 0 0-.443388.226342 132.29167 132.29167 0 0 0-.883682.457337 132.29167 132.29167 0 0 0-.440267.230993 132.29167 132.29167 0 0 0-.878496.467155 132.29167 132.29167 0 0 0-.874898.473873 132.29167 132.29167 0 0 0-.871273.480591 132.29167 132.29167 0 0 0-1.300162.732772 132.29167 132.29167 0 0 0-1.291908.747758 132.29167 132.29167 0 0 0-.856297.506429 132.29167 132.29167 0 0 0-1.277435.771529 132.29167 132.29167 0 0 0-.846984.522449 132.29167 132.29167 0 0 0-1.262962.795817 132.29167 132.29167 0 0 0-.418571.2682 132.29167 132.29167 0 0 0-.835104.541569 132.29167 132.29167 0 0 0-.415475.272852 132.29167 132.29167 0 0 0-.828887.550871 132.29167 132.29167 0 0 0-.82423.557072 132.29167 132.29167 0 0 0-.820632.563273 132.29167 132.29167 0 0 0-.408252.283704 132.29167 132.29167 0 0 0-.813885.572575 132.29167 132.29167 0 0 0-.405156.288354 132.29167 132.29167 0 0 0-1.209225.874882 132.29167 132.29167 0 0 0-.000529 0 132.29167 132.29167 0 0 0-.769462.567924 132.29167 132.29167 0 0 0-28.238582 28.58275 132.29167 132.29167 0 0 0-.03101.04341 132.29167 132.29167 0 0 0-.04649.06408 132.29167 132.29167 0 0 0-.213439.29559 132.29167 132.29167 0 0 0-.03773.05271 132.29167 132.29167 0 0 0-.577215.810802 132.29167 132.29167 0 0 0-.571024.814422 132.29167 132.29167 0 0 0-.528637.765844 132.29167 132.29167 0 0 0-.03619.05323 132.29167 132.29167 0 0 0-.280591.411345 132.29167 132.29167 0 0 0-.278527.412377 132.29167 132.29167 0 0 0-.241353.359151 132.29167 132.29167 0 0 0-.03564.05374 132.29167 132.29167 0 0 0-.239792.360185 132.29167 132.29167 0 0 0-.03564.05426 132.29167 132.29167 0 0 0-.273897.414959 132.29167 132.29167 0 0 0-.237199.362254 132.29167 132.29167 0 0 0-.03514.05426 132.29167 132.29167 0 0 0-.270774.417028 132.29167 132.29167 0 0 0-.803063 1.258321 132.29167 132.29167 0 0 0-.230479.366387 132.29167 132.29167 0 0 0-.03411.05478 132.29167 132.29167 0 0 0-.228917.367419 132.29167 132.29167 0 0 0-.03411.0553 132.29167 132.29167 0 0 0-.234103.378788 132.29167 132.29167 0 0 0-.142637.233061 132.29167 132.29167 0 0 0-.11057.180351 132.29167 132.29167 0 0 0-.0336.05529 132.29167 132.29167 0 0 0-.22479.369488 132.29167 132.29167 0 0 0-.03357.05581 132.29167 132.29167 0 0 0-.256329.426331 132.29167 132.29167 0 0 0-.253735.423749 132.29167 132.29167 0 0 0-.01032.01757 132.29167 132.29167 0 0 0-.244448.413927 132.29167 132.29167 0 0 0-.241327.410829 132.29167 132.29167 0 0 0-.08475.146244 132.29167 132.29167 0 0 0-.17518.301275 132.29167 132.29167 0 0 0-.0016.0031 132.29167 132.29167 0 0 0-.247517.428916 132.29167 132.29167 0 0 0-.246486.431498 132.29167 132.29167 0 0 0-.213942.376722 132.29167 132.29167 0 0 0-.03154.05633 132.29167 132.29167 0 0 0-.243391.433565 132.29167 132.29167 0 0 0-.232542.417544 132.29167 132.29167 0 0 0-.02842.05168 132.29167 132.29167 0 0 0-.221695.401524 132.29167 132.29167 0 0 0-.220133.402042 132.29167 132.29167 0 0 0-.06771.124542 132.29167 132.29167 0 0 0-.187589.347266 132.29167 132.29167 0 0 0-.205158.380854 132.29167 132.29167 0 0 0-.03048.05736 132.29167 132.29167 0 0 0-.233574.439248 132.29167 132.29167 0 0 0-.202063.382408 132.29167 132.29167 0 0 0-.02998.05736 132.29167 132.29167 0 0 0-.230479.440801 132.29167 132.29167 0 0 0-.199469.384471 132.29167 132.29167 0 0 0-.02945.05736 132.29167 132.29167 0 0 0-.197935.38499 132.29167 132.29167 0 0 0-.02945.05788 132.29167 132.29167 0 0 0-.225293.443384 132.29167 132.29167 0 0 0-.223758.444418 132.29167 132.29167 0 0 0-.193278.387056 132.29167 132.29167 0 0 0-.105436.212908 132.29167 132.29167 0 0 0-.143643.290935 132.29167 132.29167 0 0 0-.214974.438735 132.29167 132.29167 0 0 0-.0186.03772 132.29167 132.29167 0 0 0-.202591.418061 132.29167 132.29167 0 0 0-.205158.427365 132.29167 132.29167 0 0 0-.04546.0956 132.29167 132.29167 0 0 0-.150891.316259 132.29167 132.29167 0 0 0-.02741.05839 132.29167 132.29167 0 0 0-.184468.391191 132.29167 132.29167 0 0 0-.02738.05891 132.29167 132.29167 0 0 0-.4191.902787 132.29167 132.29167 0 0 0-.206719.452171 132.29167 132.29167 0 0 0-.178806.39429 132.29167 132.29167 0 0 0-.09922.220659 132.29167 132.29167 0 0 0-.130731.291971 132.29167 132.29167 0 0 0-.176212.395843 132.29167 132.29167 0 0 0-.02585.05891 132.29167 132.29167 0 0 0-.174149.396359 132.29167 132.29167 0 0 0-.02582.05943 132.29167 132.29167 0 0 0-.37002.853694 132.29167 132.29167 0 0 0-.02479.05839 132.29167 132.29167 0 0 0-.0057.01344 132.29167 132.29167 0 0 0-.164333.385506 132.29167 132.29167 0 0 0-.02532.05994 132.29167 132.29167 0 0 0-.193279.45837 132.29167 132.29167 0 0 0-.3498316.842324 132.29167 132.29167 0 0 0-.00672.01654 132.29167 132.29167 0 0 0-.062018.151929 132.29167 132.29167 0 0 0-.3054085.752409 132.29167 132.29167 0 0 0-.00722.01757 132.29167 132.29167 0 0 0-.1255713.313158 132.29167 132.29167 0 0 0-.07702.192754 132.29167 132.29167 0 0 0-.06096.154512 132.29167 132.29167 0 0 0-.1178189.29869 132.29167 132.29167 0 0 0-.040323.102836 132.29167 132.29167 0 0 0-.1508919.386024 132.29167 132.29167 0 0 0-.3570817.929143 132.29167 132.29167 0 0 0-.3498585.931209 132.29167 132.29167 0 0 0-.1503627.405659 132.29167 132.29167 0 0 0-.022225.06098 132.29167 132.29167 0 0 0-.1519238.415477 132.29167 132.29167 0 0 0-.0186.05168 132.29167 132.29167 0 0 0-.1467643.407212 132.29167 132.29167 0 0 0-.16383.45837 132.29167 132.29167 0 0 0-.00569.0155 132.29167 132.29167 0 0 0-.048578.138493 132.29167 132.29167 0 0 0-.1364191.386541 132.29167 132.29167 0 0 0-.1421078.408241 132.29167 132.29167 0 0 0-.021193.0615 132.29167 132.29167 0 0 0-.1410758.409276 132.29167 132.29167 0 0 0-.020664.06098 132.29167 132.29167 0 0 0-.1395148.409794 132.29167 132.29167 0 0 0-.02069.06149 132.29167 132.29167 0 0 0-.158115.471805 132.29167 132.29167 0 0 0-.1565804.472323 132.29167 132.29167 0 0 0-.3074723.946195 132.29167 132.29167 0 0 0-.2811198.886767 132.29167 132.29167 0 0 0-.019129.0615 132.29167 132.29167 0 0 0-.1436688.461471 132.29167 132.29167 0 0 0-.017039.05529 132.29167 132.29167 0 0 0-.1328208.434084 132.29167 132.29167 0 0 0-.1255712.413927 132.29167 132.29167 0 0 0-.0186.06253 132.29167 132.29167 0 0 0-.1235075.414443 132.29167 132.29167 0 0 0-.087339.297141 132.29167 132.29167 0 0 0-.053208.179834 132.29167 132.29167 0 0 0-.018098.06253 132.29167 132.29167 0 0 0-.1209146.415478 132.29167 132.29167 0 0 0-.084243.293005 132.29167 132.29167 0 0 0-.052705.185002 132.29167 132.29167 0 0 0-.017568.06253 132.29167 132.29167 0 0 0-.2682082.95808 132.29167 132.29167 0 0 0-.2609585.960149 132.29167 132.29167 0 0 0-.2537354.962216 132.29167 132.29167 0 0 0-.2464859.96376 132.29167 132.29167 0 0 0-.1157552.46457 132.29167 132.29167 0 0 0-.011906.0465 132.29167 132.29167 0 0 0-.1116013.45475 132.29167 132.29167 0 0 0-.1018116.42065 132.29167 132.29167 0 0 0-.014975.063 132.29167 132.29167 0 0 0-.1018117.42685 132.29167 132.29167 0 0 0-.053737.22944 132.29167 132.29167 0 0 0-.058394.24908 132.29167 132.29167 0 0 0-.014473.063 132.29167 132.29167 0 0 0-.1002507.43563 132.29167 132.29167 0 0 0-.047043.20722 132.29167 132.29167 0 0 0-.059928.26407 132.29167 132.29167 0 0 0-.01397.063 132.29167 132.29167 0 0 0-.1074737.48576 132.29167 132.29167 0 0 0-.1059392.48628 132.29167 132.29167 0 0 0-.097155.45165 132.29167 132.29167 0 0 0-.03048.14521 132.29167 132.29167 0 0 0-.079057.3762 132.29167 132.29167 0 0 0-.087339.42375 132.29167 132.29167 0 0 0-.012938.0636 132.29167 132.29167 0 0 0-.09869.48783 132.29167 132.29167 0 0 0-.084243.42426 132.29167 132.29167 0 0 0-.012383.0636 132.29167 132.29167 0 0 0-.095091.48834 132.29167 132.29167 0 0 0-.081148.4253 132.29167 132.29167 0 0 0-.01188.0636 132.29167 132.29167 0 0 0-.080089.42737 132.29167 132.29167 0 0 0-.047017.25734 132.29167 132.29167 0 0 0-.042386.22996 132.29167 132.29167 0 0 0-.011377.0636 132.29167 132.29167 0 0 0-.077497.43305 132.29167 132.29167 0 0 0-.010345.0568 132.29167 132.29167 0 0 0-.074401.42633 132.29167 132.29167 0 0 0-.084243.49041 132.29167 132.29167 0 0 0-.010848.0636 132.29167 132.29167 0 0 0-.071332.42685 132.29167 132.29167 0 0 0-.061992.37723 132.29167 132.29167 0 0 0-.024289.14987 132.29167 132.29167 0 0 0-.00466.0279 132.29167 132.29167 0 0 0-.06821.42736 132.29167 132.29167 0 0 0-.054266.3452 132.29167 132.29167 0 0 0-.029977.19275 132.29167 132.29167 0 0 0-.010848.0734 132.29167 132.29167 0 0 0-.066146.43615 132.29167 132.29167 0 0 0-.071834.48524 132.29167 132.29167 0 0 0-.00103.007 132.29167 132.29167 0 0 0-.062018.4284 132.29167 132.29167 0 0 0-.048048.3421 132.29167 132.29167 0 0 0-.021193.15038 132.29167 132.29167 0 0 0-.00878.0641 132.29167 132.29167 0 0 0-.059425.43254 132.29167 132.29167 0 0 0-.040296.30334 132.29167 132.29167 0 0 0-.03257.24546 132.29167 132.29167 0 0 0-.0005028.005 132.29167 132.29167 0 0 0-.055298.42943 132.29167 132.29167 0 0 0-.00828.0641 132.29167 132.29167 0 0 0-.0537369.42943 132.29167 132.29167 0 0 0-.03048.24908 132.29167 132.29167 0 0 0-.0372004.30903 132.29167 132.29167 0 0 0-.0506677.42994 132.29167 132.29167 0 0 0-.051144.44649 132.29167 132.29167 0 0 0-.008281.0739 132.29167 132.29167 0 0 0-.0123825.11472 132.29167 132.29167 0 0 0-.046011.41806 132.29167 132.29167 0 0 0-.0485775.45734 132.29167 132.29167 0 0 0-.004127.0372 132.29167 132.29167 0 0 0-.0439208.43047 132.29167 132.29167 0 0 0-.0361685.3638 132.29167 132.29167 0 0 0-.0170656.17363 132.29167 132.29167 0 0 0-.008255.091 132.29167 132.29167 0 0 0-.0403225.42684 132.29167 132.29167 0 0 0-.0444235.48679 132.29167 132.29167 0 0 0-.00052916.008 132.29167 132.29167 0 0 0-.0377296.43098 132.29167 132.29167 0 0 0-.0242887.28939 132.29167 132.29167 0 0 0-.0216958.25942 132.29167 132.29167 0 0 0-.001032.0119 132.29167 132.29167 0 0 0-.0341048.43098 132.29167 132.29167 0 0 0-.020664.27285 132.29167 132.29167 0 0 0-.0170656.22325 132.29167 132.29167 0 0 0-.004657.0651 132.29167 132.29167 0 0 0-.0697442.99219 132.29167 132.29167 0 0 0-.0284427.44028 132.29167 132.29167 0 0 0-.003598.0563 132.29167 132.29167 0 0 0-.0258498.43201 132.29167 132.29167 0 0 0-.0279135.48473 132.29167 132.29167 0 0 0-.001032.0181 132.29167 132.29167 0 0 0-.008784.17002 132.29167 132.29167 0 0 0-.020664.38551 132.29167 132.29167 0 0 0-.0227277.46043 132.29167 132.29167 0 0 0-.004657.10594 132.29167 132.29167 0 0 0-.0196321.42736 132.29167 132.29167 0 0 0-.0196321.47181 132.29167 132.29167 0 0 0-.001032.0253 132.29167 132.29167 0 0 0-.01656291.43202 132.29167 132.29167 0 0 0-.01394355.40204 132.29167 132.29167 0 0 0-.0046567.14211 132.29167 132.29167 0 0 0-.00050271.0181 132.29167 132.29167 0 0 0-.01344083.43253 132.29167 132.29167 0 0 0-.01034521.37362 132.29167 132.29167 0 0 0-.0046302.18448 132.29167 132.29167 0 0 0 0 .0109 132.29167 132.29167 0 0 0-.01137708.4904 132.29167 132.29167 0 0 0-.0030956.16847 132.29167 132.29167 0 0 0-.009816.55862 132.29167 132.29167 0 0 0-.004154.26769 132.29167 132.29167 0 0 0-.00515937.43253 132.29167 132.29167 0 0 0-.00050271.0651 132.29167 132.29167 0 0 0-.00362479.43718 132.29167 132.29167 0 0 0-.00052917.06 132.29167 132.29167 0 0 0-.00153458.43271 132.29167 132.29167 0 0 0-.00046274.34705 132.29167 132.29167 0 0 0 .00362479.99477A132.29167 132.29167 0 0 0 .956549 148.17407a132.29167 132.29167 0 0 0 .1229783.98754 132.29167 132.29167 0 0 0 .5668963 3.93929 132.29167 132.29167 0 0 0 .1601787.98185 132.29167 132.29167 0 0 0 3.2830029 14.55106 132.29167 132.29167 0 0 0 0 .00051 132.29167 132.29167 0 0 0 .1374775.47801 132.29167 132.29167 0 0 0 .2805906.95446 132.29167 132.29167 0 0 0 1.0381985 3.32383 132.29167 132.29167 0 0 0 .3126317.94464 132.29167 132.29167 0 0 0 .1586442.47129 132.29167 132.29167 0 0 0 0 .00052 132.29167 132.29167 0 0 0 .323506.94051 132.29167 132.29167 0 0 0 1.5420181 4.20336 132.29167 132.29167 0 0 0 .5457031 1.38958 132.29167 132.29167 0 0 0 .3720571.92243 132.29167 132.29167 0 0 0 .379307.91984 132.29167 132.29167 0 0 0 .192246.45888 132.29167 132.29167 0 0 0 .389625.91571 132.29167 132.29167 0 0 0 .197406.4563 132.29167 132.29167 0 0 0 .399997.91106 132.29167 132.29167 0 0 0 .202565.45475 132.29167 132.29167 0 0 0 .410316.90641 132.29167 132.29167 0 0 0 1.489313 3.14761 132.29167 132.29167 0 0 0 0 .00052 132.29167 132.29167 0 0 0 .663522 1.33686 132.29167 132.29167 0 0 0 1.371997 2.65049 132.29167 132.29167 0 0 0 .47027.87695 132.29167 132.29167 0 0 0 .477494.87281 132.29167 132.29167 0 0 0 .483685.86972 132.29167 132.29167 0 0 0 1.237641 2.15749 132.29167 132.29167 0 0 0 .506439.85679 132.29167 132.29167 0 0 0 .771525 1.27744 132.29167 132.29167 0 0 0 .522446.84646 132.29167 132.29167 0 0 0 .795814 1.26298 132.29167 132.29167 0 0 0 .268208.41857 132.29167 132.29167 0 0 0 0 .00052 132.29167 132.29167 0 0 0 .541576.83458 132.29167 132.29167 0 0 0 .823727 1.24437 132.29167 132.29167 0 0 0 .557054.82475 132.29167 132.29167 0 0 0 .563271.8201 132.29167 132.29167 0 0 0 1.144641 1.62781 132.29167 132.29167 0 0 0 .581871.80719 132.29167 132.29167 0 0 0 .883682 1.20251 132.29167 132.29167 0 0 0 .897096 1.19269 132.29167 132.29167 0 0 0 .605632.78962 132.29167 132.29167 0 0 0 1.228883 1.56528 132.29167 132.29167 0 0 0 .6232.77566 132.29167 132.29167 0 0 0 .31369.38602 132.29167 132.29167 0 0 0 .63201.76843 132.29167 132.29167 0 0 0 .637672.76378 132.29167 132.29167 0 0 0 .967396 1.13636 132.29167 132.29167 0 0 0 .652145.7519 132.29167 132.29167 0 0 0 1.989535 2.22518 132.29167 132.29167 0 0 0 .336417.36639 132.29167 132.29167 0 0 0 .676963.72915 132.29167 132.29167 0 0 0 1.370463 1.44281 132.29167 132.29167 0 0 0 1.041797 1.06867 132.29167 132.29167 0 0 0 .350361.35346 132.29167 132.29167 0 0 0 .35089.35244 132.29167 132.29167 0 0 0 1.061958 1.04851 132.29167 132.29167 0 0 0 .714666.69247 132.29167 132.29167 0 0 0 .359172.34416 132.29167 132.29167 0 0 0 .360177.34313 132.29167 132.29167 0 0 0 .000503 0 132.29167 132.29167 0 0 0 .361236.34158 132.29167 132.29167 0 0 0 .363273.34004 132.29167 132.29167 0 0 0 1.096592 1.01234 132.29167 132.29167 0 0 0 .000503 0 132.29167 132.29167 0 0 0 .367426.33434 132.29167 132.29167 0 0 0 .000503 0 132.29167 132.29167 0 0 0 .368988.33331 132.29167 132.29167 0 0 0 .000503 0 132.29167 132.29167 0 0 0 .742077.6625 132.29167 132.29167 0 0 0 .000529 0 132.29167 132.29167 0 0 0 .372586.32918 132.29167 132.29167 0 0 0 .000503 0 132.29167 132.29167 0 0 0 .373618.32762 132.29167 132.29167 0 0 0 .000529 0 132.29167 132.29167 0 0 0 .375179.32609 132.29167 132.29167 0 0 0 .000503 0 132.29167 132.29167 0 0 0 .376211.32504 132.29167 132.29167 0 0 0 1.13792.96583 132.29167 132.29167 0 0 0 .38137.31936 132.29167 132.29167 0 0 0 .000503 0 132.29167 132.29167 0 0 0 1.151864.94878 132.29167 132.29167 0 0 0 .774117.62529 132.29167 132.29167 0 0 0 1.561677 1.233 132.29167 132.29167 0 0 0 .000503 0 132.29167 132.29167 0 0 0 .392747.30437 132.29167 132.29167 0 0 0 .394812.30334 132.29167 132.29167 0 0 0 .395313.30127 132.29167 132.29167 0 0 0 .00053 0 132.29167 132.29167 0 0 0 .396345.30024 132.29167 132.29167 0 0 0 .00053 0 132.29167 132.29167 0 0 0 .397377.29869 132.29167 132.29167 0 0 0 .00053 0 132.29167 132.29167 0 0 0 .398409.29714 132.29167 132.29167 0 0 0 .4005.29559 132.29167 132.29167 0 0 0 .401002.29404 132.29167 132.29167 0 0 0 .402564.29249 132.29167 132.29167 0 0 0 .80772.58084 132.29167 132.29167 0 0 0 .000503 0 132.29167 132.29167 0 0 0 .405156.28784 132.29167 132.29167 0 0 0 .000503 0 132.29167 132.29167 0 0 0 .406188.2868 132.29167 132.29167 0 0 0 .000503 0 132.29167 132.29167 0 0 0 .40722.28474 132.29167 132.29167 0 0 0 .819071.56534 132.29167 132.29167 0 0 0 .410818.2806 132.29167 132.29167 0 0 0 .000529 0 132.29167 132.29167 0 0 0 .824759.55604 132.29167 132.29167 0 0 0 .828887.54984 132.29167 132.29167 0 0 0 .000503 0 132.29167 132.29167 0 0 0 .83304.54364 132.29167 132.29167 0 0 0 .000503 0 132.29167 132.29167 0 0 0 .417539.26923 132.29167 132.29167 0 0 0 1.260925.79892 132.29167 132.29167 0 0 0 2.547646 1.55494 132.29167 132.29167 0 0 0 .857303.5054 132.29167 132.29167 0 0 0 .860928.49919 132.29167 132.29167 0 0 0 .431509.24702 132.29167 132.29167 0 0 0 .866616.48937 132.29167 132.29167 0 0 0 .870215.48266 132.29167 132.29167 0 0 0 .436165.23874 132.29167 132.29167 0 0 0 .000503 0 132.29167 132.29167 0 0 0 .874898.47284 132.29167 132.29167 0 0 0 .439235.2341 132.29167 132.29167 0 0 0 .880559.46302 132.29167 132.29167 0 0 0 1.771994.90589 132.29167 132.29167 0 0 0 1.33739.66197 132.29167 132.29167 0 0 0 .000502 0 132.29167 132.29167 0 0 0 .447014.21756 132.29167 132.29167 0 0 0 .897625.42943 132.29167 132.29167 0 0 0 .900721.42271 132.29167 132.29167 0 0 0 .903817.416 132.29167 132.29167 0 0 0 .906912.40928 132.29167 132.29167 0 0 0 .454766.20205 132.29167 132.29167 0 0 0 .911569.39894 132.29167 132.29167 0 0 0 .456803.19689 132.29167 132.29167 0 0 0 .915723.38861 132.29167 132.29167 0 0 0 .459396.19172 132.29167 132.29167 0 0 0 1.843299.7493 132.29167 132.29167 0 0 0 .925539.36433 132.29167 132.29167 0 0 0 .000503 0 132.29167 132.29167 0 0 0 .46355.17983 132.29167 132.29167 0 0 0 .000503 0 132.29167 132.29167 0 0 0 .464052.17777 132.29167 132.29167 0 0 0 .000529 0 132.29167 132.29167 0 0 0 .930699.35036 132.29167 132.29167 0 0 0 .000502 0 132.29167 132.29167 0 0 0 .466117.1726 132.29167 132.29167 0 0 0 .000529 0 132.29167 132.29167 0 0 0 2.812733.99839 132.29167 132.29167 0 0 0 .470773.1602 132.29167 132.29167 0 0 0 .471805.15864 132.29167 132.29167 0 0 0 .471805.15658 132.29167 132.29167 0 0 0 .000529 0 132.29167 132.29167 0 0 0 .945674.30799 132.29167 132.29167 0 0 0 .000529 0 132.29167 132.29167 0 0 0 .473339.15142 132.29167 132.29167 0 0 0 .000529 0 132.29167 132.29167 0 0 0 .949299.29714 132.29167 132.29167 0 0 0 .475403.14624 132.29167 132.29167 0 0 0 .476462.14418 132.29167 132.29167 0 0 0 1.431449.42168 132.29167 132.29167 0 0 0 .000502 0 132.29167 132.29167 0 0 0 .956549.27233 132.29167 132.29167 0 0 0 .479028.13333 132.29167 132.29167 0 0 0 .480086.13177 132.29167 132.29167 0 0 0 .48006.12971 132.29167 132.29167 0 0 0 .000529 0 132.29167 132.29167 0 0 0 .48006.12816 132.29167 132.29167 0 0 0 .481621.12609 132.29167 132.29167 0 0 0 .963772.24701 132.29167 132.29167 0 0 0 2.417418.58549 132.29167 132.29167 0 0 0 .00053 0 132.29167 132.29167 0 0 0 .48421.11163 132.29167 132.29167 0 0 0 .00051 0 132.29167 132.29167 0 0 0 1.45624.32401 132.29167 132.29167 0 0 0 .4868.10438 132.29167 132.29167 0 0 0 3.90467.76895 132.29167 132.29167 0 0 0 .4899.0879 132.29167 132.29167 0 0 0 1.96162.33279 132.29167 132.29167 0 0 0 .00053 0 132.29167 132.29167 0 0 0 .98237.15555 132.29167 132.29167 0 0 0 .00051 0 132.29167 132.29167 0 0 0 .32401.0496 132.29167 132.29167 0 0 0 19.84375 1.49707 132.29167 132.29167 0 0 0 19.84375-1.49707v.00052a132.29167 132.29167 0 0 0 .28733-.0444 132.29167 132.29167 0 0 0 .1855-.0284 132.29167 132.29167 0 0 0 .0186-.003 132.29167 132.29167 0 0 0 .15814-.0248 132.29167 132.29167 0 0 0 .80047-.12764 132.29167 132.29167 0 0 0 .005-.001 132.29167 132.29167 0 0 0 .0191-.003 132.29167 132.29167 0 0 0 .47181-.078 132.29167 132.29167 0 0 0 .0186-.003 132.29167 132.29167 0 0 0 .4718-.0796 132.29167 132.29167 0 0 0 .0191-.003 132.29167 132.29167 0 0 0 .47128-.0816 132.29167 132.29167 0 0 0 .0186-.003 132.29167 132.29167 0 0 0 .4713-.0837 132.29167 132.29167 0 0 0 .0186-.003 132.29167 132.29167 0 0 0 .81957-.14934 132.29167 132.29167 0 0 0 .14058-.0258 132.29167 132.29167 0 0 0 .0186-.004 132.29167 132.29167 0 0 0 .0775-.0145 132.29167 132.29167 0 0 0 .85421-.16278 132.29167 132.29167 0 0 0 .0274-.005 132.29167 132.29167 0 0 0 .0186-.004 132.29167 132.29167 0 0 0 .95705-.18965 132.29167 132.29167 0 0 0 .0191-.004 132.29167 132.29167 0 0 0 .46871-.0961 132.29167 132.29167 0 0 0 .0186-.004 132.29167 132.29167 0 0 0 .46818-.0977 132.29167 132.29167 0 0 0 .0186-.004 132.29167 132.29167 0 0 0 .46821-.0992 132.29167 132.29167 0 0 0 .0186-.004 132.29167 132.29167 0 0 0 .46765-.10077 132.29167 132.29167 0 0 0 .0186-.004 132.29167 132.29167 0 0 0 .0351-.008 132.29167 132.29167 0 0 0 .91776-.20361 132.29167 132.29167 0 0 0 .0186-.004 132.29167 132.29167 0 0 0 .46665-.10594 132.29167 132.29167 0 0 0 .0186-.004 132.29167 132.29167 0 0 0 .46612-.10852 132.29167 132.29167 0 0 0 .0181-.004 132.29167 132.29167 0 0 0 .46612-.10955 132.29167 132.29167 0 0 0 .8599-.20774 132.29167 132.29167 0 0 0 .10697-.0258 132.29167 132.29167 0 0 0 .0186-.005 132.29167 132.29167 0 0 0 .46458-.11472 132.29167 132.29167 0 0 0 .0186-.005 132.29167 132.29167 0 0 0 .46352-.11679 132.29167 132.29167 0 0 0 .0186-.005 132.29167 132.29167 0 0 0 .46352-.11834 132.29167 132.29167 0 0 0 .0186-.005 132.29167 132.29167 0 0 0 .46302-.12041 132.29167 132.29167 0 0 0 .0186-.005 132.29167 132.29167 0 0 0 .46251-.12195 132.29167 132.29167 0 0 0 .0186-.005 132.29167 132.29167 0 0 0 .17362-.0465 132.29167 132.29167 0 0 0 .28837-.077 132.29167 132.29167 0 0 0 .38603-.1049 132.29167 132.29167 0 0 0 .094-.0253 132.29167 132.29167 0 0 0 .0186-.005 132.29167 132.29167 0 0 0 .46093-.12712 132.29167 132.29167 0 0 0 .0186-.005 132.29167 132.29167 0 0 0 .46042-.12868 132.29167 132.29167 0 0 0 .0186-.005 132.29167 132.29167 0 0 0 .46043-.13074 132.29167 132.29167 0 0 0 .0181-.005 132.29167 132.29167 0 0 0 .45993-.1323 132.29167 132.29167 0 0 0 .0181-.005 132.29167 132.29167 0 0 0 .45942-.13436 132.29167 132.29167 0 0 0 .0181-.005 132.29167 132.29167 0 0 0 .45889-.13591 132.29167 132.29167 0 0 0 .0181-.005 132.29167 132.29167 0 0 0 2.35903-.72761 132.29167 132.29167 0 0 0 .0181-.006 132.29167 132.29167 0 0 0 .45579-.14625 132.29167 132.29167 0 0 0 .0181-.006 132.29167 132.29167 0 0 0 .9276-.30334 132.29167 132.29167 0 0 0 .0181-.006 132.29167 132.29167 0 0 0 .4537-.15141 132.29167 132.29167 0 0 0 .0181-.006 132.29167 132.29167 0 0 0 .0909-.0305 132.29167 132.29167 0 0 0 .82735-.28112 132.29167 132.29167 0 0 0 .006-.002 132.29167 132.29167 0 0 0 .0181-.006 132.29167 132.29167 0 0 0 1.3906-.48679 132.29167 132.29167 0 0 0 .0176-.006 132.29167 132.29167 0 0 0 .45064-.16175 132.29167 132.29167 0 0 0 .76428-.27802 132.29167 132.29167 0 0 0 .17055-.0625 132.29167 132.29167 0 0 0 .0176-.007 132.29167 132.29167 0 0 0 .44854-.1664 132.29167 132.29167 0 0 0 .0181-.007 132.29167 132.29167 0 0 0 .87593-.33073 132.29167 132.29167 0 0 0 .0372-.014 132.29167 132.29167 0 0 0 .0176-.007 132.29167 132.29167 0 0 0 .44649-.17208 132.29167 132.29167 0 0 0 .0181-.007 132.29167 132.29167 0 0 0 .44595-.17312 132.29167 132.29167 0 0 0 .0176-.007 132.29167 132.29167 0 0 0 .44545-.17519 132.29167 132.29167 0 0 0 .0176-.007 132.29167 132.29167 0 0 0 .44495-.17674 132.29167 132.29167 0 0 0 .0176-.007 132.29167 132.29167 0 0 0 .15295-.0615 132.29167 132.29167 0 0 0 .29094-.11679 132.29167 132.29167 0 0 0 .90588-.36948 132.29167 132.29167 0 0 0 .0155-.006 132.29167 132.29167 0 0 0 .0176-.007 132.29167 132.29167 0 0 0 .44186-.18345 132.29167 132.29167 0 0 0 .0176-.007 132.29167 132.29167 0 0 0 .44129-.18501 132.29167 132.29167 0 0 0 .0176-.007 132.29167 132.29167 0 0 0 .44082-.18655 132.29167 132.29167 0 0 0 .0176-.007 132.29167 132.29167 0 0 0 .43977-.18862 132.29167 132.29167 0 0 0 .0176-.007 132.29167 132.29167 0 0 0 .43923-.19017 132.29167 132.29167 0 0 0 .0171-.007 132.29167 132.29167 0 0 0 .43873-.19171 132.29167 132.29167 0 0 0 .0176-.008 132.29167 132.29167 0 0 0 .4377-.19327 132.29167 132.29167 0 0 0 .0171-.007 132.29167 132.29167 0 0 0 .8599-.38551 132.29167 132.29167 0 0 0 .031-.0139 132.29167 132.29167 0 0 0 .0171-.008 132.29167 132.29167 0 0 0 .43563-.19844 132.29167 132.29167 0 0 0 .0176-.008 132.29167 132.29167 0 0 0 .43461-.19947 132.29167 132.29167 0 0 0 .017-.008 132.29167 132.29167 0 0 0 .88472-.4129 132.29167 132.29167 0 0 0 .017-.008 132.29167 132.29167 0 0 0 1.30638-.62425 132.29167 132.29167 0 0 0 .0232-.0114 132.29167 132.29167 0 0 0 .0171-.008 132.29167 132.29167 0 0 0 .43045-.20929 132.29167 132.29167 0 0 0 .0171-.008 132.29167 132.29167 0 0 0 .42942-.21135 132.29167 132.29167 0 0 0 .0171-.008 132.29167 132.29167 0 0 0 .42839-.21291 132.29167 132.29167 0 0 0 .0171-.008 132.29167 132.29167 0 0 0 .42786-.21445 132.29167 132.29167 0 0 0 .0171-.008 132.29167 132.29167 0 0 0 .42685-.21652 132.29167 132.29167 0 0 0 .38343-.19534 132.29167 132.29167 0 0 0 .0594-.0305 132.29167 132.29167 0 0 0 .0171-.009 132.29167 132.29167 0 0 0 .4253-.21911 132.29167 132.29167 0 0 0 .017-.009 132.29167 132.29167 0 0 0 .42429-.22066 132.29167 132.29167 0 0 0 .017-.009 132.29167 132.29167 0 0 0 .42376-.22273 132.29167 132.29167 0 0 0 .0165-.009 132.29167 132.29167 0 0 0 .0491-.0258 132.29167 132.29167 0 0 0 .39069-.20671 132.29167 132.29167 0 0 0 .42219-.22582 132.29167 132.29167 0 0 0 .0165-.009 132.29167 132.29167 0 0 0 .42116-.22738 132.29167 132.29167 0 0 0 .0165-.009 132.29167 132.29167 0 0 0 .42063-.22893 132.29167 132.29167 0 0 0 .0165-.009 132.29167 132.29167 0 0 0 .41963-.23048 132.29167 132.29167 0 0 0 .0165-.009 132.29167 132.29167 0 0 0 .10953-.0605 132.29167 132.29167 0 0 0 .30904-.17157 132.29167 132.29167 0 0 0 .39274-.21911 132.29167 132.29167 0 0 0 .0413-.0232 132.29167 132.29167 0 0 0 .0165-.009 132.29167 132.29167 0 0 0 .41703-.23513 132.29167 132.29167 0 0 0 .0165-.009 132.29167 132.29167 0 0 0 .41601-.23668 132.29167 132.29167 0 0 0 .0165-.009 132.29167 132.29167 0 0 0 .41495-.23823 132.29167 132.29167 0 0 0 .0165-.009 132.29167 132.29167 0 0 0 .41394-.23978 132.29167 132.29167 0 0 0 .0165-.009 132.29167 132.29167 0 0 0 .41288-.24133 132.29167 132.29167 0 0 0 .0165-.01 132.29167 132.29167 0 0 0 .063-.0372 132.29167 132.29167 0 0 0 .77721-.45993 132.29167 132.29167 0 0 0 .016-.009 132.29167 132.29167 0 0 0 .41085-.24598 132.29167 132.29167 0 0 0 .016-.01 132.29167 132.29167 0 0 0 .40979-.24753 132.29167 132.29167 0 0 0 .016-.01 132.29167 132.29167 0 0 0 .40876-.24908 132.29167 132.29167 0 0 0 .016-.01 132.29167 132.29167 0 0 0 .40773-.25063 132.29167 132.29167 0 0 0 .016-.01 132.29167 132.29167 0 0 0 .40669-.25218 132.29167 132.29167 0 0 0 .4222-.26355 132.29167 132.29167 0 0 0 .016-.01 132.29167 132.29167 0 0 0 .75758-.47904 132.29167 132.29167 0 0 0 .0672-.0429 132.29167 132.29167 0 0 0 .016-.0103 132.29167 132.29167 0 0 0 .0517-.0331 132.29167 132.29167 0 0 0 .76896-.49506 132.29167 132.29167 0 0 0 .016-.0103 132.29167 132.29167 0 0 0 .40103-.26096 132.29167 132.29167 0 0 0 .016-.0103 132.29167 132.29167 0 0 0 .39998-.26303 132.29167 132.29167 0 0 0 .016-.0103 132.29167 132.29167 0 0 0 .39894-.26406 132.29167 132.29167 0 0 0 .0155-.0103 132.29167 132.29167 0 0 0 .39791-.26613 132.29167 132.29167 0 0 0 .016-.0103 132.29167 132.29167 0 0 0 .39687-.26717 132.29167 132.29167 0 0 0 .41188-.27956 132.29167 132.29167 0 0 0 .0155-.0103 132.29167 132.29167 0 0 0 .39481-.27027 132.29167 132.29167 0 0 0 .016-.0109 132.29167 132.29167 0 0 0 .39378-.2713 132.29167 132.29167 0 0 0 .0155-.0109 132.29167 132.29167 0 0 0 .39325-.27337 132.29167 132.29167 0 0 0 .0155-.0108 132.29167 132.29167 0 0 0 .39172-.27441 132.29167 132.29167 0 0 0 .0155-.0109 132.29167 132.29167 0 0 0 .79632-.56482 132.29167 132.29167 0 0 0 .0155-.0108 132.29167 132.29167 0 0 0 .38862-.27905 132.29167 132.29167 0 0 0 .0155-.0109 132.29167 132.29167 0 0 0 .38756-.2806 132.29167 132.29167 0 0 0 .0155-.0114 132.29167 132.29167 0 0 0 .38653-.28164 132.29167 132.29167 0 0 0 .0155-.0114 132.29167 132.29167 0 0 0 .38552-.28319 132.29167 132.29167 0 0 0 .015-.0114 132.29167 132.29167 0 0 0 .2713-.20102 132.29167 132.29167 0 0 0 .12867-.0951 132.29167 132.29167 0 0 0 .38343-.28628 132.29167 132.29167 0 0 0 .015-.0114 132.29167 132.29167 0 0 0 .0873-.0656 132.29167 132.29167 0 0 0 .31057-.23358 132.29167 132.29167 0 0 0 1.03198-.78806 132.29167 132.29167 0 0 0 .13848-.10646 132.29167 132.29167 0 0 0 .015-.0119 132.29167 132.29167 0 0 0 .18809-.14573 132.29167 132.29167 0 0 0 .20516-.15916 132.29167 132.29167 0 0 0 .37671-.29508 132.29167 132.29167 0 0 0 .015-.0114 132.29167 132.29167 0 0 0 .37571-.29663 132.29167 132.29167 0 0 0 .38963-.30902 132.29167 132.29167 0 0 0 .015-.0119 132.29167 132.29167 0 0 0 .37362-.29921 132.29167 132.29167 0 0 0 .0145-.0119 132.29167 132.29167 0 0 0 .0822-.0661 132.29167 132.29167 0 0 0 .63821-.51728 132.29167 132.29167 0 0 0 .0383-.031 132.29167 132.29167 0 0 0 .0145-.0119 132.29167 132.29167 0 0 0 .37052-.30334 132.29167 132.29167 0 0 0 .0145-.0119 132.29167 132.29167 0 0 0 .36898-.3049 132.29167 132.29167 0 0 0 .0145-.0119 132.29167 132.29167 0 0 0 .36796-.30593 132.29167 132.29167 0 0 0 .015-.0124 132.29167 132.29167 0 0 0 .3664-.30747 132.29167 132.29167 0 0 0 .0145-.0119 132.29167 132.29167 0 0 0 .36587-.30902 132.29167 132.29167 0 0 0 .0145-.0119 132.29167 132.29167 0 0 0 .3643-.31057 132.29167 132.29167 0 0 0 .0145-.0124 132.29167 132.29167 0 0 0 .73948-.63665 132.29167 132.29167 0 0 0 .0145-.0124 132.29167 132.29167 0 0 0 .36071-.3142 132.29167 132.29167 0 0 0 .0145-.0124 132.29167 132.29167 0 0 0 .35965-.31574 132.29167 132.29167 0 0 0 .014-.0124 132.29167 132.29167 0 0 0 .35864-.3173 132.29167 132.29167 0 0 0 .0139-.0124 132.29167 132.29167 0 0 0 .35761-.31833 132.29167 132.29167 0 0 0 .0139-.0124 132.29167 132.29167 0 0 0 .35605-.31988 132.29167 132.29167 0 0 0 .0145-.0129 132.29167 132.29167 0 0 0 .65421-.59376 132.29167 132.29167 0 0 0 .0682-.062 132.29167 132.29167 0 0 0 .014-.0129 132.29167 132.29167 0 0 0 .35243-.32349 132.29167 132.29167 0 0 0 .0139-.0129 132.29167 132.29167 0 0 0 .35142-.32505 132.29167 132.29167 0 0 0 .0139-.0129 132.29167 132.29167 0 0 0 1.07384-1.00872 132.29167 132.29167 0 0 0 .0139-.0129 132.29167 132.29167 0 0 0 .34624-.33073 132.29167 132.29167 0 0 0 .014-.0129 132.29167 132.29167 0 0 0 .34467-.33124 132.29167 132.29167 0 0 0 .0139-.0134 132.29167 132.29167 0 0 0 .34367-.33279 132.29167 132.29167 0 0 0 .0134-.0129 132.29167 132.29167 0 0 0 .34263-.33435 132.29167 132.29167 0 0 0 .0139-.0134 132.29167 132.29167 0 0 0 .34108-.33538 132.29167 132.29167 0 0 0 .0134-.0129 132.29167 132.29167 0 0 0 .34005-.33693 132.29167 132.29167 0 0 0 .0134-.0134 132.29167 132.29167 0 0 0 .33898-.33796 132.29167 132.29167 0 0 0 .0134-.0134 132.29167 132.29167 0 0 0 .33745-.339 132.29167 132.29167 0 0 0 .0134-.0134 132.29167 132.29167 0 0 0 .33589-.34054 132.29167 132.29167 0 0 0 .0134-.0134 132.29167 132.29167 0 0 0 .33486-.3421 132.29167 132.29167 0 0 0 .0134-.0134 132.29167 132.29167 0 0 0 .33382-.34313 132.29167 132.29167 0 0 0 .0129-.0134 132.29167 132.29167 0 0 0 .33229-.34416 132.29167 132.29167 0 0 0 .0134-.014 132.29167 132.29167 0 0 0 .33073-.3452 132.29167 132.29167 0 0 0 .0134-.0139 132.29167 132.29167 0 0 0 .32969-.34675 132.29167 132.29167 0 0 0 .0129-.0134 132.29167 132.29167 0 0 0 .32866-.3483 132.29167 132.29167 0 0 0 .0129-.0134 132.29167 132.29167 0 0 0 .32711-.34933 132.29167 132.29167 0 0 0 .0129-.0139 132.29167 132.29167 0 0 0 .32608-.35037 132.29167 132.29167 0 0 0 .0129-.014 132.29167 132.29167 0 0 0 .32454-.35192 132.29167 132.29167 0 0 0 .0129-.014 132.29167 132.29167 0 0 0 .32298-.35295 132.29167 132.29167 0 0 0 .0129-.0139 132.29167 132.29167 0 0 0 .32144-.35399 132.29167 132.29167 0 0 0 .0129-.0139 132.29167 132.29167 0 0 0 .32039-.35553 132.29167 132.29167 0 0 0 .0129-.014 132.29167 132.29167 0 0 0 .31936-.35656 132.29167 132.29167 0 0 0 .0124-.014 132.29167 132.29167 0 0 0 .64699-.73122 132.29167 132.29167 0 0 0 .0124-.0139 132.29167 132.29167 0 0 0 .31522-.36019 132.29167 132.29167 0 0 0 .0124-.0145 132.29167 132.29167 0 0 0 .0527-.061 132.29167 132.29167 0 0 0 .57049-.6594 132.29167 132.29167 0 0 0 .0155-.0176 132.29167 132.29167 0 0 0 .0124-.0145 132.29167 132.29167 0 0 0 .31109-.36381 132.29167 132.29167 0 0 0 .32195-.37878 132.29167 132.29167 0 0 0 .0124-.0145 132.29167 132.29167 0 0 0 .308-.36639 132.29167 132.29167 0 0 0 .0124-.0145 132.29167 132.29167 0 0 0 .30694-.3669 132.29167 132.29167 0 0 0 .0124-.0145 132.29167 132.29167 0 0 0 .30541-.36846 132.29167 132.29167 0 0 0 .0119-.0145 132.29167 132.29167 0 0 0 .30438-.36949 132.29167 132.29167 0 0 0 .0119-.0145 132.29167 132.29167 0 0 0 .30284-.37104 132.29167 132.29167 0 0 0 .0119-.0145 132.29167 132.29167 0 0 0 .30128-.37155 132.29167 132.29167 0 0 0 .0124-.015 132.29167 132.29167 0 0 0 .29972-.37259 132.29167 132.29167 0 0 0 .0119-.015 132.29167 132.29167 0 0 0 .0568-.0713 132.29167 132.29167 0 0 0 .25374-.3173 132.29167 132.29167 0 0 0 .29712-.37517 132.29167 132.29167 0 0 0 .0119-.015 132.29167 132.29167 0 0 0 .29559-.37621 132.29167 132.29167 0 0 0 .0119-.015 132.29167 132.29167 0 0 0 .29403-.37724 132.29167 132.29167 0 0 0 .0119-.015 132.29167 132.29167 0 0 0 .2925-.37827 132.29167 132.29167 0 0 0 .0119-.015 132.29167 132.29167 0 0 0 .29147-.37931 132.29167 132.29167 0 0 0 .0114-.015 132.29167 132.29167 0 0 0 .29043-.38085 132.29167 132.29167 0 0 0 .0114-.015 132.29167 132.29167 0 0 0 .28834-.38189 132.29167 132.29167 0 0 0 .0114-.015 132.29167 132.29167 0 0 0 .28731-.38293 132.29167 132.29167 0 0 0 .0114-.015 132.29167 132.29167 0 0 0 .28578-.38396 132.29167 132.29167 0 0 0 .0113-.015 132.29167 132.29167 0 0 0 .28424-.38499 132.29167 132.29167 0 0 0 .0114-.0155 132.29167 132.29167 0 0 0 .28268-.38603 132.29167 132.29167 0 0 0 .0114-.015 132.29167 132.29167 0 0 0 .28162-.38705 132.29167 132.29167 0 0 0 .0109-.0155 132.29167 132.29167 0 0 0 .28009-.38809 132.29167 132.29167 0 0 0 .0109-.0155 132.29167 132.29167 0 0 0 .13229-.18448 132.29167 132.29167 0 0 0 .15761-.22014 132.29167 132.29167 0 0 0 .27699-.39016 132.29167 132.29167 0 0 0 .0109-.0155 132.29167 132.29167 0 0 0 .27543-.39119 132.29167 132.29167 0 0 0 .0109-.0155 132.29167 132.29167 0 0 0 .55758-.80098 132.29167 132.29167 0 0 0 .0109-.0155 132.29167 132.29167 0 0 0 .0574-.0837 132.29167 132.29167 0 0 0 .40928-.59738 132.29167 132.29167 0 0 0 .0956-.14004 132.29167 132.29167 0 0 0 .26821-.39636 132.29167 132.29167 0 0 0 .0103-.0155 132.29167 132.29167 0 0 0 .10543-.1571 132.29167 132.29167 0 0 0 .17209-.25631 132.29167 132.29167 0 0 0 .26508-.39843 132.29167 132.29167 0 0 0 .0103-.0155 132.29167 132.29167 0 0 0 .26355-.39946 132.29167 132.29167 0 0 0 .0103-.016 132.29167 132.29167 0 0 0 .26252-.39998 132.29167 132.29167 0 0 0 .0103-.016 132.29167 132.29167 0 0 0 .0434-.0667 132.29167 132.29167 0 0 0 .22739-.35037 132.29167 132.29167 0 0 0 .10543-.1633 132.29167 132.29167 0 0 0 .16381-.25528 132.29167 132.29167 0 0 0 .21444-.33538 132.29167 132.29167 0 0 0 .0538-.0837 132.29167 132.29167 0 0 0 .25579-.40411 132.29167 132.29167 0 0 0 .0103-.016 132.29167 132.29167 0 0 0 .25477-.40566 132.29167 132.29167 0 0 0 .01-.0155 132.29167 132.29167 0 0 0 .25323-.4067 132.29167 132.29167 0 0 0 .01-.016 132.29167 132.29167 0 0 0 .25164-.40721 132.29167 132.29167 0 0 0 .01-.016 132.29167 132.29167 0 0 0 .25013-.40772 132.29167 132.29167 0 0 0 .01-.0165 132.29167 132.29167 0 0 0 .18759-.30851 132.29167 132.29167 0 0 0 .0708-.11627 132.29167 132.29167 0 0 0 .24701-.41031 132.29167 132.29167 0 0 0 .01-.016 132.29167 132.29167 0 0 0 .24495-.41083 132.29167 132.29167 0 0 0 .01-.0165 132.29167 132.29167 0 0 0 .24392-.41135 132.29167 132.29167 0 0 0 .01-.0165 132.29167 132.29167 0 0 0 .48421-.82837 132.29167 132.29167 0 0 0 .008-.0145 132.29167 132.29167 0 0 0 .009-.016 132.29167 132.29167 0 0 0 .23926-.41444 132.29167 132.29167 0 0 0 .009-.0165 132.29167 132.29167 0 0 0 .23773-.41548 132.29167 132.29167 0 0 0 .009-.0165 132.29167 132.29167 0 0 0 .23616-.416 132.29167 132.29167 0 0 0 .009-.0165 132.29167 132.29167 0 0 0 .2346-.41754 132.29167 132.29167 0 0 0 .009-.016 132.29167 132.29167 0 0 0 .23307-.41858 132.29167 132.29167 0 0 0 .2403-.43512 132.29167 132.29167 0 0 0 .009-.0165 132.29167 132.29167 0 0 0 .22945-.42013 132.29167 132.29167 0 0 0 .009-.0165 132.29167 132.29167 0 0 0 .22842-.42065 132.29167 132.29167 0 0 0 .009-.0165 132.29167 132.29167 0 0 0 .22686-.42168 132.29167 132.29167 0 0 0 .009-.0165 132.29167 132.29167 0 0 0 .0181-.0341 132.29167 132.29167 0 0 0 .216-.40515 132.29167 132.29167 0 0 0 .22323-.42323 132.29167 132.29167 0 0 0 .009-.0165 132.29167 132.29167 0 0 0 .22169-.42427 132.29167 132.29167 0 0 0 .009-.0165 132.29167 132.29167 0 0 0 .22016-.42478 132.29167 132.29167 0 0 0 .009-.0171 132.29167 132.29167 0 0 0 .21857-.42581 132.29167 132.29167 0 0 0 .009-.0165 132.29167 132.29167 0 0 0 .21707-.42685 132.29167 132.29167 0 0 0 .22376-.44389 132.29167 132.29167 0 0 0 .009-.0171 132.29167 132.29167 0 0 0 .21394-.42788 132.29167 132.29167 0 0 0 .008-.017 132.29167 132.29167 0 0 0 .21238-.42892 132.29167 132.29167 0 0 0 .008-.0171 132.29167 132.29167 0 0 0 .0202-.0413 132.29167 132.29167 0 0 0 .40772-.83613 132.29167 132.29167 0 0 0 .008-.0171 132.29167 132.29167 0 0 0 .20722-.43098 132.29167 132.29167 0 0 0 .008-.017 132.29167 132.29167 0 0 0 .20566-.43202 132.29167 132.29167 0 0 0 .008-.0171 132.29167 132.29167 0 0 0 .20412-.43305 132.29167 132.29167 0 0 0 .008-.017 132.29167 132.29167 0 0 0 .15915-.34055 132.29167 132.29167 0 0 0 .0517-.11059 132.29167 132.29167 0 0 0 .2005-.43408 132.29167 132.29167 0 0 0 .35762-.78342 132.29167 132.29167 0 0 0 .0553-.12195 132.29167 132.29167 0 0 0 .008-.0176 132.29167 132.29167 0 0 0 .10903-.24288 132.29167 132.29167 0 0 0 .0946-.21084 132.29167 132.29167 0 0 0 .19431-.43718 132.29167 132.29167 0 0 0 .008-.0176 132.29167 132.29167 0 0 0 .19275-.43822 132.29167 132.29167 0 0 0 .007-.017 132.29167 132.29167 0 0 0 .12919-.29662 132.29167 132.29167 0 0 0 .0698-.15969 132.29167 132.29167 0 0 0 .18913-.43924 132.29167 132.29167 0 0 0 .007-.0176 132.29167 132.29167 0 0 0 .18809-.44028 132.29167 132.29167 0 0 0 .007-.0176 132.29167 132.29167 0 0 0 .18603-.4408 132.29167 132.29167 0 0 0 .007-.0176 132.29167 132.29167 0 0 0 .18449-.44132 132.29167 132.29167 0 0 0 .007-.0176 132.29167 132.29167 0 0 0 .18294-.44235 132.29167 132.29167 0 0 0 .007-.0176 132.29167 132.29167 0 0 0 .18087-.44286 132.29167 132.29167 0 0 0 .007-.0176 132.29167 132.29167 0 0 0 .17934-.4439 132.29167 132.29167 0 0 0 .18446-.46147 132.29167 132.29167 0 0 0 .007-.0176 132.29167 132.29167 0 0 0 .17622-.44546 132.29167 132.29167 0 0 0 .007-.0176 132.29167 132.29167 0 0 0 .17465-.44546 132.29167 132.29167 0 0 0 .007-.0176 132.29167 132.29167 0 0 0 .17261-.44649 132.29167 132.29167 0 0 0 .007-.0176 132.29167 132.29167 0 0 0 .17106-.447 132.29167 132.29167 0 0 0 .007-.0176 132.29167 132.29167 0 0 0 .16952-.44752 132.29167 132.29167 0 0 0 .007-.0181 132.29167 132.29167 0 0 0 .0356-.0951 132.29167 132.29167 0 0 0 .13851-.37052 132.29167 132.29167 0 0 0 .16587-.44907 132.29167 132.29167 0 0 0 .007-.0176 132.29167 132.29167 0 0 0 .0687-.18862 132.29167 132.29167 0 0 0 .10179-.27905 132.29167 132.29167 0 0 0 .1628-.4501 132.29167 132.29167 0 0 0 .006-.0176 132.29167 132.29167 0 0 0 .16124-.45062 132.29167 132.29167 0 0 0 .006-.0181 132.29167 132.29167 0 0 0 .15917-.45113 132.29167 132.29167 0 0 0 .006-.0181 132.29167 132.29167 0 0 0 .15761-.45165 132.29167 132.29167 0 0 0 .006-.0181 132.29167 132.29167 0 0 0 .15555-.45217 132.29167 132.29167 0 0 0 .006-.0181 132.29167 132.29167 0 0 0 .15399-.45321 132.29167 132.29167 0 0 0 .006-.0176 132.29167 132.29167 0 0 0 .15242-.45373 132.29167 132.29167 0 0 0 .006-.0181 132.29167 132.29167 0 0 0 .15036-.45424 132.29167 132.29167 0 0 0 .006-.0181 132.29167 132.29167 0 0 0 .14883-.45476 132.29167 132.29167 0 0 0 .006-.0181 132.29167 132.29167 0 0 0 .0476-.14676 132.29167 132.29167 0 0 0 .0998-.30851 132.29167 132.29167 0 0 0 .12969-.40514 132.29167 132.29167 0 0 0 .0217-.0687 132.29167 132.29167 0 0 0 .006-.0181 132.29167 132.29167 0 0 0 .1442-.45631 132.29167 132.29167 0 0 0 .006-.0181 132.29167 132.29167 0 0 0 .14213-.45734 132.29167 132.29167 0 0 0 .005-.0176 132.29167 132.29167 0 0 0 .0889-.28939 132.29167 132.29167 0 0 0 .0574-.18655 132.29167 132.29167 0 0 0 .13851-.45785 132.29167 132.29167 0 0 0 .006-.0181 132.29167 132.29167 0 0 0 .13695-.45888 132.29167 132.29167 0 0 0 .005-.0181 132.29167 132.29167 0 0 0 .13539-.45889 132.29167 132.29167 0 0 0 .005-.0181 132.29167 132.29167 0 0 0 .0196-.0672 132.29167 132.29167 0 0 0 .24755-.85783 132.29167 132.29167 0 0 0 .004-.0129 132.29167 132.29167 0 0 0 .005-.0181 132.29167 132.29167 0 0 0 .1297-.46095 132.29167 132.29167 0 0 0 .005-.0181 132.29167 132.29167 0 0 0 .12816-.46095 132.29167 132.29167 0 0 0 .005-.0181 132.29167 132.29167 0 0 0 .12663-.46147 132.29167 132.29167 0 0 0 .005-.0186 132.29167 132.29167 0 0 0 .12454-.46199 132.29167 132.29167 0 0 0 .0904-.33848 132.29167 132.29167 0 0 0 .0377-.14211 132.29167 132.29167 0 0 0 .005-.0181 132.29167 132.29167 0 0 0 .0295-.11265 132.29167 132.29167 0 0 0 .092-.35037 132.29167 132.29167 0 0 0 .091-.3514 132.29167 132.29167 0 0 0 .0336-.13022 132.29167 132.29167 0 0 0 .005-.0186 132.29167 132.29167 0 0 0 .11782-.46354 132.29167 132.29167 0 0 0 .005-.0186 132.29167 132.29167 0 0 0 .11628-.46405 132.29167 132.29167 0 0 0 .005-.0186 132.29167 132.29167 0 0 0 .11423-.46457 132.29167 132.29167 0 0 0 .005-.0186 132.29167 132.29167 0 0 0 .11264-.46509 132.29167 132.29167 0 0 0 .004-.0181 132.29167 132.29167 0 0 0 .1111-.4656 132.29167 132.29167 0 0 0 .004-.0186 132.29167 132.29167 0 0 0 .0372-.15917 132.29167 132.29167 0 0 0 .29352-1.27692 132.29167 132.29167 0 0 0 .004-.0181 132.29167 132.29167 0 0 0 .10388-.46767 132.29167 132.29167 0 0 0 .004-.0181 132.29167 132.29167 0 0 0 .0285-.13177 132.29167 132.29167 0 0 0 .14933-.68988 132.29167 132.29167 0 0 0 .0326-.1509 132.29167 132.29167 0 0 0 .0987-.46819 132.29167 132.29167 0 0 0 .004-.0186 132.29167 132.29167 0 0 0 .0972-.4687 132.29167 132.29167 0 0 0 .004-.0186 132.29167 132.29167 0 0 0 .0951-.46922 132.29167 132.29167 0 0 0 .004-.0186 132.29167 132.29167 0 0 0 .0935-.46923 132.29167 132.29167 0 0 0 .004-.0186 132.29167 132.29167 0 0 0 .0915-.46974 132.29167 132.29167 0 0 0 .004-.0186 132.29167 132.29167 0 0 0 .0899-.46974 132.29167 132.29167 0 0 0 .004-.0186 132.29167 132.29167 0 0 0 .0878-.47078 132.29167 132.29167 0 0 0 .004-.0186 132.29167 132.29167 0 0 0 .0858-.47077 132.29167 132.29167 0 0 0 .004-.0186 132.29167 132.29167 0 0 0 .0842-.47077 132.29167 132.29167 0 0 0 .0605-.34468 132.29167 132.29167 0 0 0 .0258-.14573 132.29167 132.29167 0 0 0 .003-.0186 132.29167 132.29167 0 0 0 .0811-.47129 132.29167 132.29167 0 0 0 .003-.0186 132.29167 132.29167 0 0 0 .0791-.47233 132.29167 132.29167 0 0 0 .003-.0186 132.29167 132.29167 0 0 0 .007-.0434 132.29167 132.29167 0 0 0 .20154-1.25883 132.29167 132.29167 0 0 0 .0269-.17157 132.29167 132.29167 0 0 0 .0718-.47284 132.29167 132.29167 0 0 0 .0496-.33176 132.29167 132.29167 0 0 0 .0238-.16072 132.29167 132.29167 0 0 0 .003-.0186 132.29167 132.29167 0 0 0 .015-.10387 132.29167 132.29167 0 0 0 .11782-.82682 132.29167 132.29167 0 0 0 .005-.0357 132.29167 132.29167 0 0 0 .003-.0186 132.29167 132.29167 0 0 0 .0646-.47439 132.29167 132.29167 0 0 0 .003-.0186 132.29167 132.29167 0 0 0 .063-.47439 132.29167 132.29167 0 0 0 .003-.0186 132.29167 132.29167 0 0 0 .0615-.47491 132.29167 132.29167 0 0 0 .003-.0186 132.29167 132.29167 0 0 0 .0594-.4749 132.29167 132.29167 0 0 0 .002-.0186 132.29167 132.29167 0 0 0 .0579-.47542 132.29167 132.29167 0 0 0 .002-.0186 132.29167 132.29167 0 0 0 .0563-.47543 132.29167 132.29167 0 0 0 .002-.0186 132.29167 132.29167 0 0 0 .0543-.47543 132.29167 132.29167 0 0 0 .002-.0186 132.29167 132.29167 0 0 0 .0522-.47594 132.29167 132.29167 0 0 0 .002-.0186 132.29167 132.29167 0 0 0 .0506-.47594 132.29167 132.29167 0 0 0 .002-.0191 132.29167 132.29167 0 0 0 .01-.0971 132.29167 132.29167 0 0 0 .0408-.3974 132.29167 132.29167 0 0 0 .0263-.26355 132.29167 132.29167 0 0 0 .0207-.2129 132.29167 132.29167 0 0 0 .047-.49506 132.29167 132.29167 0 0 0 .0294-.31885 132.29167 132.29167 0 0 0 .016-.17673 132.29167 132.29167 0 0 0 .002-.0191 132.29167 132.29167 0 0 0 .0419-.47646 132.29167 132.29167 0 0 0 .002-.0191 132.29167 132.29167 0 0 0 .0398-.47697 132.29167 132.29167 0 0 0 .002-.0186 132.29167 132.29167 0 0 0 .004-.0501 132.29167 132.29167 0 0 0 .0967-1.26917 132.29167 132.29167 0 0 0 .0124-.16899 132.29167 132.29167 0 0 0 .0325-.47749 132.29167 132.29167 0 0 0 .001-.0186 132.29167 132.29167 0 0 0 .031-.47801 132.29167 132.29167 0 0 0 .001-.0186 132.29167 132.29167 0 0 0 .0294-.47749 132.29167 132.29167 0 0 0 .001-.0191 132.29167 132.29167 0 0 0 .0274-.47801 132.29167 132.29167 0 0 0 .001-.0186 132.29167 132.29167 0 0 0 .0253-.47801 132.29167 132.29167 0 0 0 .001-.0186 132.29167 132.29167 0 0 0 .0238-.47852 132.29167 132.29167 0 0 0 .001-.0186 132.29167 132.29167 0 0 0 .0217-.47801 132.29167 132.29167 0 0 0 .001-.0191 132.29167 132.29167 0 0 0 .009-.21032 132.29167 132.29167 0 0 0 .0119-.2868 132.29167 132.29167 0 0 0 .007-.19121 132.29167 132.29167 0 0 0 .0238-.65009 132.29167 132.29167 0 0 0 .005-.13384 132.29167 132.29167 0 0 0 .00053-.0191 132.29167 132.29167 0 0 0 .0145-.47801 132.29167 132.29167 0 0 0 .0005-.0191 132.29167 132.29167 0 0 0 .0129-.47852 132.29167 132.29167 0 0 0 .0005-.0186 132.29167 132.29167 0 0 0 .0114-.47853 132.29167 132.29167 0 0 0 .0005-.0191 132.29167 132.29167 0 0 0 .003-.13694 132.29167 132.29167 0 0 0 .0145-.85783 132.29167 132.29167 0 0 0 .006-.47852 132.29167 132.29167 0 0 0 0-.0191 132.29167 132.29167 0 0 0 .001-.13281 132.29167 132.29167 0 0 0 .005-.76688 132.29167 132.29167 0 0 0 .00053-.076 132.29167 132.29167 0 0 0 0-.0191 132.29167 132.29167 0 0 0 .0005-.32815 132.29167 132.29167 0 0 0-.18343-6.96185 132.29167 132.29167 0 0 0-.0563-.99374 132.29167 132.29167 0 0 0-2.18594-17.26147 132.29167 132.29167 0 0 0-.19325-.97617 132.29167 132.29167 0 0 0-1.31363-5.82341 132.29167 132.29167 0 0 0-.12142-.482146 132.29167 132.29167 0 0 0-3.12436-10.486181 132.29167 132.29167 0 0 0-.3266-.939993 132.29167 132.29167 0 0 0-5.3082-12.872082 132.29167 132.29167 0 0 0-.43048-.897105 132.29167 132.29167 0 0 0-12.16514-20.261812 132.29167 132.29167 0 0 0-27.98382-28.232384 132.29167 132.29167 0 0 0-.39997-.296106 132.29167 132.29167 0 0 0-.36536-.268717 132.29167 132.29167 0 0 0-.0357-.02584 132.29167 132.29167 0 0 0-.0904-.06615 132.29167 132.29167 0 0 0-.3116-.22686 132.29167 132.29167 0 0 0-.0904-.06563 132.29167 132.29167 0 0 0-.31316-.225826 132.29167 132.29167 0 0 0-.4041-.289905 132.29167 132.29167 0 0 0-.091-.06511 132.29167 132.29167 0 0 0-.31419-.223242 132.29167 132.29167 0 0 0-.0915-.0646 132.29167 132.29167 0 0 0-.31522-.222208 132.29167 132.29167 0 0 0-.40773-.285254 132.29167 132.29167 0 0 0-.40825-.283704 132.29167 132.29167 0 0 0-.40978-.282154 132.29167 132.29167 0 0 0-.385-.263033 132.29167 132.29167 0 0 0-.0258-.01809 132.29167 132.29167 0 0 0-.0925-.06305 132.29167 132.29167 0 0 0-.31938-.216007 132.29167 132.29167 0 0 0-.0925-.06253 132.29167 132.29167 0 0 0-.32038-.214974 132.29167 132.29167 0 0 0-.36174-.241329 132.29167 132.29167 0 0 0-.0517-.03462 132.29167 132.29167 0 0 0-.0935-.06201 132.29167 132.29167 0 0 0-.32145-.212907 132.29167 132.29167 0 0 0-.0935-.06149 132.29167 132.29167 0 0 0-.32244-.211357 132.29167 132.29167 0 0 0-.0936-.06098 132.29167 132.29167 0 0 0-.32348-.210323 132.29167 132.29167 0 0 0-.0941-.06098 132.29167 132.29167 0 0 0-.32401-.208773 132.29167 132.29167 0 0 0-.0941-.06046 132.29167 132.29167 0 0 0-.32504-.207739 132.29167 132.29167 0 0 0-.42013-.26665 132.29167 132.29167 0 0 0-.42063-.2651 132.29167 132.29167 0 0 0-.0946-.05943 132.29167 132.29167 0 0 0-.32763-.204122 132.29167 132.29167 0 0 0-.0951-.05891 132.29167 132.29167 0 0 0-.32763-.203089 132.29167 132.29167 0 0 0-.003-.0021 132.29167 132.29167 0 0 0-.81854-.500227 132.29167 132.29167 0 0 0-.0274-.01654 132.29167 132.29167 0 0 0-.0956-.05788 132.29167 132.29167 0 0 0-.0511-.03049 132.29167 132.29167 0 0 0-.37518-.226343 132.29167 132.29167 0 0 0-.33073-.197921 132.29167 132.29167 0 0 0-.0961-.05736 132.29167 132.29167 0 0 0-.33176-.19637 132.29167 132.29167 0 0 0-.33124-.195337 132.29167 132.29167 0 0 0-.0977-.05736 132.29167 132.29167 0 0 0-.0966-.05633 132.29167 132.29167 0 0 0-.33279-.194304 132.29167 132.29167 0 0 0-.0971-.05633 132.29167 132.29167 0 0 0-.33383-.192753 132.29167 132.29167 0 0 0-.43151-.247013 132.29167 132.29167 0 0 0-.43254-.24598 132.29167 132.29167 0 0 0-.37827-.212907 132.29167 132.29167 0 0 0-.0553-.03152 132.29167 132.29167 0 0 0-.0977-.05478 132.29167 132.29167 0 0 0-.33642-.187585 132.29167 132.29167 0 0 0-.0976-.05426 132.29167 132.29167 0 0 0-.33796-.186552 132.29167 132.29167 0 0 0-.43616-.239262 132.29167 132.29167 0 0 0-.0982-.05374 132.29167 132.29167 0 0 0-.33848-.183968 132.29167 132.29167 0 0 0-.0987-.05323 132.29167 132.29167 0 0 0-.33951-.182934 132.29167 132.29167 0 0 0-.0987-.05271 132.29167 132.29167 0 0 0-.34001-.181384 132.29167 132.29167 0 0 0-.43977-.232544 132.29167 132.29167 0 0 0-.35502-.186552 132.29167 132.29167 0 0 0-.0858-.04496 132.29167 132.29167 0 0 0-.0992-.05168 132.29167 132.29167 0 0 0-.34208-.177251 132.29167 132.29167 0 0 0-.416-.214457 132.29167 132.29167 0 0 0-.0264-.01344 132.29167 132.29167 0 0 0-.0997-.05116 132.29167 132.29167 0 0 0-.34367-.174666 132.29167 132.29167 0 0 0-.38033-.192753 132.29167 132.29167 0 0 0-.0636-.03204 132.29167 132.29167 0 0 0-.0997-.05013 132.29167 132.29167 0 0 0-.34521-.172599 132.29167 132.29167 0 0 0-.0997-.04961 132.29167 132.29167 0 0 0-.3457-.171049 132.29167 132.29167 0 0 0-.10028-.04961 132.29167 132.29167 0 0 0-.34621-.170015 132.29167 132.29167 0 0 0-.10078-.04909 132.29167 132.29167 0 0 0-.34676-.168465 132.29167 132.29167 0 0 0-.44802-.216007 132.29167 132.29167 0 0 0-.44908-.214458 132.29167 132.29167 0 0 0-.44958-.21239 132.29167 132.29167 0 0 0-.45061-.21084 132.29167 132.29167 0 0 0-.45167-.209289 132.29167 132.29167 0 0 0-.45214-.207739 132.29167 132.29167 0 0 0-.39741-.180351 132.29167 132.29167 0 0 0-.0553-.02532 132.29167 132.29167 0 0 0-.10178-.04599 132.29167 132.29167 0 0 0-.35192-.15813 132.29167 132.29167 0 0 0-.10232-.04599 132.29167 132.29167 0 0 0-.35192-.15658 132.29167 132.29167 0 0 0-.009-.0036 132.29167 132.29167 0 0 0-.34624-.152962 132.29167 132.29167 0 0 0-.10025-.04392 132.29167 132.29167 0 0 0-.10284-.04496 132.29167 132.29167 0 0 0-.35346-.153996 132.29167 132.29167 0 0 0-.4563-.197404 132.29167 132.29167 0 0 0-.45786-.195337 132.29167 132.29167 0 0 0-.10284-.04392 132.29167 132.29167 0 0 0-.35502-.150378 132.29167 132.29167 0 0 0-.10335-.04341 132.29167 132.29167 0 0 0-.35555-.148312 132.29167 132.29167 0 0 0-.35139-.145727 132.29167 132.29167 0 0 0-.1085-.044958 132.29167 132.29167 0 0 0-.10338-.042375 132.29167 132.29167 0 0 0-.35708-.1462445 132.29167 132.29167 0 0 0-.84077-.3389974 132.29167 132.29167 0 0 0-.0816-.033073 132.29167 132.29167 0 0 0-.10387-.041341 132.29167 132.29167 0 0 0-.0909-.035656 132.29167 132.29167 0 0 0-.37208-.147278 132.29167 132.29167 0 0 0-.35862-.1405599 132.29167 132.29167 0 0 0-.1044-.040824 132.29167 132.29167 0 0 0-.35965-.1395264 132.29167 132.29167 0 0 0-.10441-.040307 132.29167 132.29167 0 0 0-.36017-.1379763 132.29167 132.29167 0 0 0-.10438-.039791 132.29167 132.29167 0 0 0-.36071-.1364258 132.29167 132.29167 0 0 0-.46561-.1746666 132.29167 132.29167 0 0 0-.42685-.1581298 132.29167 132.29167 0 0 0-.0398-.014986 132.29167 132.29167 0 0 0-.10488-.038758 132.29167 132.29167 0 0 0-.36227-.1322916 132.29167 132.29167 0 0 0-.1049-.03824 132.29167 132.29167 0 0 0-.36277-.1312582 132.29167 132.29167 0 0 0-.29766-.1069703 132.29167 132.29167 0 0 0-.27593-.098185 132.29167 132.29167 0 0 0-.36381-.1286745 132.29167 132.29167 0 0 0-.0129-.00465 132.29167 132.29167 0 0 0-.88779-.3085081 132.29167 132.29167 0 0 0-.0393-.013436 132.29167 132.29167 0 0 0-.10541-.036173 132.29167 132.29167 0 0 0-.36536-.1240234 132.29167 132.29167 0 0 0-.46765-.1581301 132.29167 132.29167 0 0 0-.004-.00103 132.29167 132.29167 0 0 0-.001-.0005167 132.29167 132.29167 0 0 0-.4713-.1565796 132.29167 132.29167 0 0 0-.47231-.1550292 132.29167 132.29167 0 0 0-.47336-.153479 132.29167 132.29167 0 0 0-.47387-.1519287 132.29167 132.29167 0 0 0-.4744-.1498619 132.29167 132.29167 0 0 0-.42323-.1322916 132.29167 132.29167 0 0 0-.0517-.016019 132.29167 132.29167 0 0 0-.10644-.033073 132.29167 132.29167 0 0 0-.36899-.1131716 132.29167 132.29167 0 0 0-.47593-.144694 132.29167 132.29167 0 0 0-.27493-.082682 132.29167 132.29167 0 0 0-.30901-.091984 132.29167 132.29167 0 0 0-.14107-.041858 132.29167 132.29167 0 0 0-.22842-.067179 132.29167 132.29167 0 0 0-.41497-.1209231 132.29167 132.29167 0 0 0-.063-.018603 132.29167 132.29167 0 0 0-.1075-.031006 132.29167 132.29167 0 0 0-.37052-.1064533 132.29167 132.29167 0 0 0-.10747-.030489 132.29167 132.29167 0 0 0-.37105-.104903 132.29167 132.29167 0 0 0-.43924-.12299 132.29167 132.29167 0 0 0-.0398-.010852 132.29167 132.29167 0 0 0-.108-.029972 132.29167 132.29167 0 0 0-.37209-.1023191 132.29167 132.29167 0 0 0-.10747-.029456 132.29167 132.29167 0 0 0-.37259-.100769 132.29167 132.29167 0 0 0-.108-.028939 132.29167 132.29167 0 0 0-.37259-.099219 132.29167 132.29167 0 0 0-.48112-.1266074 132.29167 132.29167 0 0 0-.46042-.1193723 132.29167 132.29167 0 0 0-.0212-.00568 132.29167 132.29167 0 0 0-.007-.00155 132.29167 132.29167 0 0 0-.43201-.1105876 132.29167 132.29167 0 0 0-.0434-.010852 132.29167 132.29167 0 0 0-.108-.027388 132.29167 132.29167 0 0 0-.37412-.093534 132.29167 132.29167 0 0 0-.48318-.1193726 132.29167 132.29167 0 0 0-.27906-.068213 132.29167 132.29167 0 0 0-.31316-.075448 132.29167 132.29167 0 0 0-.37518-.0894 132.29167 132.29167 0 0 0-.1085-.025838 132.29167 132.29167 0 0 0-.37569-.088367 132.29167 132.29167 0 0 0-.10906-.025321 132.29167 132.29167 0 0 0-.37568-.086816 132.29167 132.29167 0 0 0-.10903-.024805 132.29167 132.29167 0 0 0-.37622-.085267 132.29167 132.29167 0 0 0-.48521-.108521 132.29167 132.29167 0 0 0-.41188-.09043 132.29167 132.29167 0 0 0-.0739-.01602 132.29167 132.29167 0 0 0-.10954-.02377 132.29167 132.29167 0 0 0-.37724-.08113 132.29167 132.29167 0 0 0-.10903-.02325 132.29167 132.29167 0 0 0-.37778-.07958 132.29167 132.29167 0 0 0-.35139-.07286 132.29167 132.29167 0 0 0-.24495-.05064 132.29167 132.29167 0 0 0-.37775-.077 132.29167 132.29167 0 0 0-.11006-.02222 132.29167 132.29167 0 0 0-.37828-.07545 132.29167 132.29167 0 0 0-.10956-.0217 132.29167 132.29167 0 0 0-.37828-.0739 132.29167 132.29167 0 0 0-.11006-.02119 132.29167 132.29167 0 0 0-.37878-.07235 132.29167 132.29167 0 0 0-.10957-.02067 132.29167 132.29167 0 0 0-.3793-.07131 132.29167 132.29167 0 0 0-.005-.001 132.29167 132.29167 0 0 0-.48472-.08888 132.29167 132.29167 0 0 0-.11006-.02015 132.29167 132.29167 0 0 0-.37931-.06821 132.29167 132.29167 0 0 0-.11007-.01964 132.29167 132.29167 0 0 0-.37983-.06666 132.29167 132.29167 0 0 0-.11007-.01912 132.29167 132.29167 0 0 0-.38034-.06563 132.29167 132.29167 0 0 0-.11006-.0186 132.29167 132.29167 0 0 0-.38034-.06408 132.29167 132.29167 0 0 0-.005-.001 132.29167 132.29167 0 0 0-.48578-.07958 132.29167 132.29167 0 0 0-.11057-.01809 132.29167 132.29167 0 0 0-.38086-.06098 132.29167 132.29167 0 0 0-.11007-.01757 132.29167 132.29167 0 0 0-.38137-.05995 132.29167 132.29167 0 0 0-.1106-.01705 132.29167 132.29167 0 0 0-.0718-.01085 132.29167 132.29167 0 0 0-.40719-.06201 132.29167 132.29167 0 0 0-.0124-.0021 132.29167 132.29167 0 0 0-.0341-.0052 132.29167 132.29167 0 0 0-.45836-.0677 132.29167 132.29167 0 0 0-.38137-.05529 132.29167 132.29167 0 0 0-.003-.000517 132.29167 132.29167 0 0 0-.40359-.05684 132.29167 132.29167 0 0 0-.0858-.0124 132.29167 132.29167 0 0 0-.1111-.0155 132.29167 132.29167 0 0 0-.38187-.05271 132.29167 132.29167 0 0 0-.11059-.01499 132.29167 132.29167 0 0 0-.12507-.01654 132.29167 132.29167 0 0 0-.35449-.04702 132.29167 132.29167 0 0 0-.0139-.0021 132.29167 132.29167 0 0 0-.38242-.04961 132.29167 132.29167 0 0 0-.29816-.03772 132.29167 132.29167 0 0 0-.30644-.03824 132.29167 132.29167 0 0 0-.38294-.04703 132.29167 132.29167 0 0 0-.0264-.0031 132.29167 132.29167 0 0 0-.39584-.04703 132.29167 132.29167 0 0 0-.0718-.0083 132.29167 132.29167 0 0 0-.11109-.01292 132.29167 132.29167 0 0 0-.38291-.04393 132.29167 132.29167 0 0 0-.34883-.03876 132.29167 132.29167 0 0 0-.24288-.02687 132.29167 132.29167 0 0 0-.0139-.0016 132.29167 132.29167 0 0 0-.38343-.04082 132.29167 132.29167 0 0 0-.49506-.05116 132.29167 132.29167 0 0 0-.1111-.01137 132.29167 132.29167 0 0 0-.38396-.03824 132.29167 132.29167 0 0 0-.1111-.01085 132.29167 132.29167 0 0 0-.38397-.03669 132.29167 132.29167 0 0 0-.11109-.01033 132.29167 132.29167 0 0 0-.3845-.03514 132.29167 132.29167 0 0 0-.1111-.0098 132.29167 132.29167 0 0 0-.49556-.04341 132.29167 132.29167 0 0 0-.38449-.03256 132.29167 132.29167 0 0 0-.0284-.0021 132.29167 132.29167 0 0 0-.40875-.03307 132.29167 132.29167 0 0 0-.0584-.0046 132.29167 132.29167 0 0 0-.11163-.0088 132.29167 132.29167 0 0 0-.38446-.02946 132.29167 132.29167 0 0 0-.11163-.0083 132.29167 132.29167 0 0 0-.38447-.02791 132.29167 132.29167 0 0 0-.49662-.03462 132.29167 132.29167 0 0 0-.49609-.03256 132.29167 132.29167 0 0 0-.1116-.0072 132.29167 132.29167 0 0 0-.12764-.0078 132.29167 132.29167 0 0 0-.36899-.02222 132.29167 132.29167 0 0 0-.38499-.02222 132.29167 132.29167 0 0 0-.11213-.0062 132.29167 132.29167 0 0 0-.0233-.001 132.29167 132.29167 0 0 0-.44699-.02429 132.29167 132.29167 0 0 0-.0264-.0016 132.29167 132.29167 0 0 0-.38499-.01912 132.29167 132.29167 0 0 0-.49713-.02325 132.29167 132.29167 0 0 0-.49712-.02119 132.29167 132.29167 0 0 0-.11163-.0047 132.29167 132.29167 0 0 0-.3855-.01499 132.29167 132.29167 0 0 0-.11163-.0041 132.29167 132.29167 0 0 0-.3855-.01344 132.29167 132.29167 0 0 0-.11162-.0036 132.29167 132.29167 0 0 0-.0196-.000517 132.29167 132.29167 0 0 0-.47749-.01499 132.29167 132.29167 0 0 0-.49765-.01344 132.29167 132.29167 0 0 0-.3855-.0093 132.29167 132.29167 0 0 0-.11163-.0026 132.29167 132.29167 0 0 0-.12557-.0026 132.29167 132.29167 0 0 0-.83095-.01447 132.29167 132.29167 0 0 0-.0383-.000516 132.29167 132.29167 0 0 0-.386-.0047 132.29167 132.29167 0 0 0-.11163-.001 132.29167 132.29167 0 0 0-.49765-.0041 132.29167 132.29167 0 0 0-.3855-.0021 132.29167 132.29167 0 0 0-.0155 0 132.29167 132.29167 0 0 0-.44338-.000517zM62.288182 35.984027 132.29167 113.7307l70.00348-77.746673a119.0625 119.0625 0 0 1 27.8107 28.424621l-77.97043 86.595222v98.68597a119.0625 119.0625 0 0 1-19.84375 1.66553 119.0625 119.0625 0 0 1-19.84375-1.66553v-98.68597L34.476981 64.408648a119.0625 119.0625 0 0 1 27.811201-28.424621Z"/>
</svg>