<svg xmlns="http://www.w3.org/2000/svg" width="1000" height="150" viewBox="0 0 264.58333 39.687501">
  <g style="line-height:1.25;-inkscape-font-specification:sans-serif">
    <path d="M31.24453.0000233 19.740005 19.132321v12.070321h-8.046881V19.509519L-1.6e-7.0000233H9.1365626L15.884208 12.070345 22.401343.0000233ZM52.28377 31.202642H34.010645v-5.53223h5.113122V5.532254h-5.113122V.0000233H52.28377V5.532254h-5.113122v20.138158h5.113122zM86.294415.0000233 74.789889 19.132321v12.070321h-8.04688V19.509519L55.049885.0000233h9.136562l6.747645 12.0703217L77.451228.0000233ZM117.79041 19.907672q0 5.783695-3.52051 8.864142-3.52051 3.080446-10.37293 3.080446-6.852422 0-10.372932-3.080446-3.499555-3.080447-3.499555-8.843187V.0000233h8.088791V19.467608q0 3.24809 1.362103 4.840702 1.362103 1.592611 4.421593 1.592611 3.01758 0 4.40064-1.529745 1.40401-1.529746 1.40401-4.903568V.0000233h8.08879zm35.89664 11.29497h-7.75351L132.68972 9.7862041V31.202642h-7.37631V.0000233h9.61854l11.37879 17.8749727V.0000233h7.37631zm38.89326-9.157518q0 2.053631-.73344 3.855797-.73344 1.781211-2.17937 3.017581-1.52974 1.320191-3.68815 2.053631-2.15841.712484-5.34363.712484-2.15841 0-4.06535-.167643-1.90695-.146688-3.35287-.440064v-6.328537h.75439q1.00586.377198 2.09555.712485 1.08968.314331 2.78707.314331 2.20032 0 3.37382-.586752 1.19446-.586752 1.69739-1.634523.48197-1.026815.54484-2.242229.0629-1.23637.0629-3.143313V5.7418082h-7.1458V.0000233h15.19268zm24.43401 9.157518H198.7412v-5.53223h5.11312V5.532254h-5.11312V.0000233h18.27312V5.532254h-5.11312v20.138158h5.11312zm35.39369 0h-8.3193l-2.15841-6.307581h-11.56739l-2.15841 6.307581h-8.10974L231.62024.0000233h9.26229zm-12.42656-12.02841-3.83484-11.190194-3.83484 11.190194zm24.60167 12.02841h-7.83733v-8.235479h7.83733z" aria-label="YIYUN JIA." font-family="sans-serif" font-size="42.9167" font-weight="700" style="-inkscape-font-specification:'sans-serif Bold'"/>
  </g>
</svg>