<svg xmlns="http://www.w3.org/2000/svg" width="1000" height="60" viewBox="0 0 264.58333 15.875">
  <g style="line-height:1.25;-inkscape-font-specification:'sans-serif Bold'">
    <path d="M12.210476 10.090745q0 2.110216-1.793684 3.433898-1.7840925 1.314089-4.8534986 1.314089-1.7745004 0-3.0981819-.30694-1.3140895-.316533-2.46511677-.796128v-3.424306H.4028543q1.14143541.91123 2.55144391 1.400417 1.4196003.489186 2.7240979.489186.3357163 0 .8824543-.05755t.8920461-.191838q.4220434-.172654.6906164-.431635.278165-.258981.278165-.767352 0-.470003-.4028596-.8057189-.3932677-.3453092-1.1606192-.5275552-.8057191-.1918379-1.7073572-.3549001-.8920461-.1726541-1.6785815-.4316352Q1.6689843 8.047671.87285711 7.050114.08632178 6.0429652.08632178 4.5562216q0-1.995114 1.78409232-3.2516522Q3.6640983.03843937 6.4745233.03843937q1.4100085 0 2.7816494.27816493 1.3812323.26857304 2.3883813.68102449V4.2876485h-.393267q-.863271-.6906164-2.119809-1.1510273-1.2469462-.4700028-2.5514438-.4700028-.460411 0-.9208219.067143-.450819.0575516-.8728623.2302057-.3740839.1438784-.642657.4412271-.268573.2877569-.268573.6618407 0 .5659218.4316352.8728624.4316353.2973487 1.6306221.546738.7865353.1630622 1.5059274.3165325.7289839.1534703 1.5634787.4220433 1.6402136.5371461 2.4171576 1.4675599.786535.9208218.786535 2.397974zm16.411731-2.6473633q0 3.4147143-1.956746 5.4290123-1.956747 2.004706-5.409828 2.004706-3.44349 0-5.400237-2.004706-1.956746-2.014298-1.956746-5.4290123 0-3.44349 1.956746-5.438604Q17.812143.0000718 21.255633.0000718q3.433898 0 5.400236 2.0047059 1.966338 1.995114 1.966338 5.438604zm-4.882274 3.6161443q.537146-.652249.796127-1.5347032.258982-.8920462.258982-2.091033 0-1.2853138-.297349-2.1869519-.297349-.901638-.776944-1.4579679-.489186-.5755136-1.131843-.8344948-.633065-.2589811-1.323682-.2589811-.700208 0-1.323681.2493892-.613881.2493893-1.131843.8249029-.479595.5371461-.786536 1.4867436-.297349.9400057-.297349 2.1869519 0 1.2757219.287757 2.17736.297349.8920463.776944 1.4579683.479594.565921 1.122251.834494.642657.268573 1.352457.268573.709801 0 1.352458-.268573.642656-.278165 1.122251-.853678zm17.927249-7.9996399h-6.570447v2.6569547h6.090853v2.7624655h-6.090853v6.1004447h-3.664104V.29742051h10.234551zm13.716411 0h-4.46023V14.579751h-3.683288V3.0598861h-4.460231V.29742051h12.603749zM77.310661.29742051 73.464311 14.579751h-4.076555L66.82672 5.2756136l-2.493892 9.3041374h-4.076555L56.409923.29742051h3.84635l2.196544 9.83169149L65.080996.29742051h3.673695l2.503485 9.83169149L73.56023.29742051ZM92.964635 14.579751h-3.807982l-.987965-2.88716h-5.294726l-.987965 2.88716h-3.712063L83.449476.29742051h4.239617zm-5.687993-5.5057473-1.755317-5.1220715-1.755317 5.1220715Zm15.749888-4.4026794q0-.5371461-.22061-.9208219-.22061-.3836757-.75776-.6042893-.37408-.1534703-.87286-.182246-.49878-.038368-1.16062-.038368h-1.333274v3.8463496h1.131843q.882451 0 1.477151-.086327.5947-.086327.99756-.3932677.38367-.2973487.55633-.6522488.18224-.364492.18224-.9687813zm5.74555 9.9084267h-4.4986l-3.89431-5.2371742h-1.697764v5.2371742h-3.664104V.29742051h6.177178q1.26613 0 2.17736.14387842.91123.14387841 1.70736.62347317.80572.4795947 1.27572 1.2469462.4796.7577596.4796 1.908787 0 1.5826625-.73858 2.5802195-.72898.997557-2.09103 1.6593977zm11.9419 0h-10.33047V.29742051h10.33047V3.0598861h-6.66636v2.4651168h6.18677v2.7624655h-6.18677v3.5298166h6.66636zm23.29871-7.1267774q0 1.995114-.91123 3.5777764-.91123 1.573071-2.30205 2.417157-1.04552.633066-2.29246.882455-1.24695.249389-2.95431.249389h-5.03574V.29742051h5.17962q1.74573 0 3.01186.29734873 1.26613.28775682 2.1294.82490286 1.47715.9016381 2.32123 2.4363412.85368 1.5251112.85368 3.5969603zm-3.80798-.028776q0-1.4100084-.51796-2.4075654-.50837-1.0071489-1.62103-1.5730707-.56592-.2781649-1.16062-.3740839-.58511-.1055108-1.7745-.1055108h-.93041v8.9396459h.93041q1.31409 0 1.92797-.115103.61388-.124695 1.19899-.441227 1.00715-.575514 1.47715-1.5347034.47-.9687813.47-2.3883817zm16.94889 7.1555534h-10.33047V.29742051h10.33047V3.0598861h-6.66637v2.4651168h6.18677v2.7624655h-6.18677v3.5298166h6.66637zM173.19124.29742051l-5.2084 14.28233049h-4.12452L158.64992.29742051h3.86554l3.45308 10.03312149L169.42162.29742051zM185.57437 14.579751H175.2439V.29742051h10.33047V3.0598861h-6.66636v2.4651168h6.18677v2.7624655h-6.18677v3.5298166h6.66636zm13.39029 0h-10.30169V.29742051h3.68329V11.817285h6.6184zm16.10478-7.1363693q0 3.4147143-1.95674 5.4290123-1.95675 2.004706-5.40983 2.004706-3.44349 0-5.40024-2.004706-1.95674-2.014298-1.95674-5.4290123 0-3.44349 1.95674-5.438604 1.95675-2.0047059 5.40024-2.0047059 3.4339 0 5.40024 2.0047059 1.96633 1.995114 1.96633 5.438604zm-4.88227 3.6161443q.53715-.652249.79613-1.5347032.25898-.8920462.25898-2.091033 0-1.2853138-.29735-2.1869519-.29735-.901638-.77694-1.4579679-.48919-.5755136-1.13185-.8344948-.63306-.2589811-1.32368-.2589811-.70021 0-1.32368.2493892-.61388.2493893-1.13184.8249029-.4796.5371461-.78654 1.4867436-.29735.9400057-.29735 2.1869519 0 1.2757219.28776 2.17736.29735.8920463.77694 1.4579683.4796.565921 1.12225.834494.64266.268573 1.35246.268573t1.35246-.268573q.64265-.278165 1.12225-.853678zm19.48114-6.2539152q0 .9591894-.33571 1.8800113-.33572.9112299-.95919 1.534703-.85368.8440867-1.90879 1.275722-1.04552.4316352-2.609.4316352h-2.29246v4.6520687h-3.68329V.29742051h6.06208q1.36205 0 2.29246.23979736.94001.23020546 1.6594.70020823.86327.5659218 1.31409 1.4483761.46041.8824542.46041 2.1198086zm-3.80798.086327q0-.6042893-.32612-1.0359245-.32613-.4412272-.75776-.6138813-.57552-.2302054-1.12226-.2493892-.54673-.028776-1.45796-.028776h-.63307v4.2779848h1.05511q.94001 0 1.54429-.1151027.61389-.1151027 1.02634-.4604109.3549-.3069406.50837-.728984.16306-.4316352.16306-1.0455165zm16.74744 9.6878132H232.2773V.29742051h10.33047V3.0598861h-6.66636v2.4651168h6.18677v2.7624655h-6.18677v3.5298166h6.66636zm11.09783-9.9084267q0-.5371461-.22061-.9208219-.22061-.3836757-.75776-.6042893-.37408-.1534703-.87286-.182246-.49878-.038368-1.16062-.038368h-1.33327v3.8463496h1.13184q.88245 0 1.47715-.086327t.99756-.3932677q.38367-.2973487.55633-.6522488.18224-.364492.18224-.9687813zm5.74555 9.9084267h-4.4986l-3.89431-5.2371742h-1.69776v5.2371742h-3.66411V.29742051h6.17718q1.26613 0 2.17736.14387842.91123.14387841 1.70736.62347317.80572.4795947 1.27572 1.2469462.4796.7577596.4796 1.908787 0 1.5826625-.73858 2.5802195-.72898.997557-2.09103 1.6593977zm5.13166 0h-3.58737v-3.769614h3.58737z" aria-label="SOFTWARE DEVELOPER." font-family="sans-serif" font-size="19.6442" font-weight="700" style="-inkscape-font-specification:'sans-serif Bold'"/>
  </g>
</svg>